<?xml version="1.0" encoding="utf-8"?>
<svg viewBox="389.246 141.747 762.504 350.015" width="762.504" height="350.015" xmlns="http://www.w3.org/2000/svg">
  <defs>
    <style>
      .cls-1 {
        fill: #3e3e3e;
        fill-rule: evenodd;
      }
      .cls-2 {
        fill: #c1c3aa;
        fill-rule: evenodd;
      }
    </style>
  </defs>
  <path id="G" class="cls-2" d="M760.75,491.75a7.434,7.434,0,0,0,5.5-2,6.8,6.8,0,0,0,2-5v-197a7.1,7.1,0,0,0-2-4.75,6.416,6.416,0,0,0-5-2.25h-246a7.047,7.047,0,0,1-4.75-2,6.4,6.4,0,0,1-2.25-5v-9.5a6.416,6.416,0,0,1,2.25-5,7.085,7.085,0,0,1,4.75-2h245.5a6.416,6.416,0,0,0,5-2.25,7.085,7.085,0,0,0,2-4.75V148.75a6.835,6.835,0,0,0-7-7h-273a93.135,93.135,0,0,0-49.5,13.75,102.419,102.419,0,0,0-49,87.75v146.5a102.431,102.431,0,0,0,49,88.25,93.064,93.064,0,0,0,49.5,13.75h273Zm-245.5-96.5a5.7,5.7,0,0,1-4.5-2.5,8.585,8.585,0,0,1-2-5.5v-10a9.312,9.312,0,0,1,2-6,5.725,5.725,0,0,1,4.5-2.5l142,0.5a6.835,6.835,0,0,1,7,7v12a7.085,7.085,0,0,1-2,4.75,6.416,6.416,0,0,1-5,2.25h-142Z"/>
  <path id="e" class="cls-2" d="M793.25,246.25a9.391,9.391,0,0,1-9.5-9.5v-85.5a9.391,9.391,0,0,1,9.5-9.5h349a9.391,9.391,0,0,1,9.5,9.5v331a9.391,9.391,0,0,1-9.5,9.5h-349a9.391,9.391,0,0,1-9.5-9.5v-83a9.391,9.391,0,0,1,9.5-9.5h236q4.005,0,4-3.5v-21.5c0-2.328-1.33-3.5-4-3.5h-236a9.391,9.391,0,0,1-9.5-9.5v-68.5a9.391,9.391,0,0,1,9.5-9.5h236q4.005,0,4-3.5v-20.5c0-2.328-1.33-3.5-4-3.5h-236Z"/>
</svg>
